<svg width="14" height="14" viewBox="0 0 14 14" fill="none" xmlns="http://www.w3.org/2000/svg">
<path d="M8.00508 10.8815L5.89925 12.9868C4.54825 14.3372 2.3625 14.3372 1.01208 12.9868C0.35875 12.3346 0 11.4666 0 10.5438C0 9.62092 0.35875 8.75292 1.0115 8.10017L3.85 5.26225C5.22375 3.8885 7.4165 3.94275 8.73658 5.26225C9.00083 5.5265 9.20908 5.82983 9.37183 6.153L8.44258 7.08167C8.33758 6.72408 8.15092 6.38808 7.88025 6.118C7.03558 5.27333 5.58775 5.23717 4.7075 6.11742L4.70692 6.11858L1.86783 8.9565C0.992833 9.83092 0.992833 11.2554 1.86783 12.1298C2.75275 13.0148 4.17667 12.9978 5.04233 12.1298L6.45692 10.7158C7.03617 10.8815 7.50167 10.9113 8.00508 10.8815V10.8815ZM8.099 1.01267L6.01417 3.09867C6.50825 3.0695 6.97958 3.09867 7.56175 3.26375L8.95767 1.87017C9.8315 0.994001 11.256 0.995167 12.131 1.86958C13.0159 2.75508 12.9978 4.179 12.131 5.04408L9.31292 7.86217L9.31117 7.86333C8.47233 8.70158 7.04433 8.76867 6.13842 7.86217C5.8625 7.58567 5.6805 7.25433 5.58075 6.90375L5.53175 6.94342L4.64683 7.82717C4.81017 8.1515 5.01725 8.45425 5.2815 8.7185C6.59108 10.0281 8.78383 10.1033 10.1687 8.7185L12.9873 5.90042C14.3372 4.54942 14.3383 2.36425 12.9867 1.01383C11.6352 -0.340083 9.44767 -0.335416 8.099 1.01267V1.01267Z" fill="#FF67ED"/>
</svg>
