<svg width="380" height="380" viewBox="0 0 380 380" fill="none" xmlns="http://www.w3.org/2000/svg">
<circle cx="190" cy="190" r="190" fill="white"/>
<path fill-rule="evenodd" clip-rule="evenodd" d="M173.557 95.2836C250.784 91.4713 285.633 146.054 287.887 170.433C289.452 187.356 279.491 206.862 279.491 221.984C279.491 229.703 288.906 246.275 284.523 257.525C274.767 282.566 254.112 310.356 227.79 310.356C201.469 310.356 167.213 317.663 138.128 275.86C135.399 271.938 100.883 249.646 97.5298 228.463C89.177 175.698 118.452 98.0039 173.557 95.2836Z" fill="white"/>
<path fill-rule="evenodd" clip-rule="evenodd" d="M169.916 61.315C172.677 58.1439 177.339 56.8755 181.482 57.121C187.499 57.479 192.732 61.2076 198.719 61.4837C204.996 61.7753 211.054 59.5913 217.346 60.604C221.203 61.228 225.025 63.0233 227.496 66.0511C236.056 63.591 245.349 66.849 250.801 73.9635C257.527 72.915 264.843 77.3857 266.902 83.891C275.446 84.1672 283.512 91.0566 284.465 99.6901C287.879 100.595 290.844 102.959 292.663 106.083C294.777 109.705 295.129 113.858 294.747 117.939C298.767 120 300.81 124.43 301.345 129.115C305.018 131.866 306.613 136.812 305.864 141.482C308.677 143.072 310.129 146.775 310.114 150.08C310.098 153.164 309.284 155.895 310.43 158.872C311.451 161.522 311.818 163.732 311.256 166.508L311.199 166.779C311.099 167.231 311.016 167.666 310.941 168.094C311.702 168.764 312.345 169.604 312.828 170.581C314.59 174.151 314.328 178.222 312.984 181.843C313.573 184.149 313.498 186.584 312.628 188.8C314.257 191.156 315.113 194.044 314.862 197.042C314.579 200.397 313.053 203.402 310.738 205.624C311.355 210.208 309.498 215.16 306.141 218.388C306.617 221.132 306.206 224.007 304.711 226.609C303.645 228.463 302.21 229.844 300.555 230.806C300.609 232.337 300.403 233.903 299.895 235.471C299.191 237.648 297.997 239.654 296.427 241.269C297.364 247.283 293.777 253.956 287.464 255.643C286.933 255.785 286.427 255.85 285.943 255.86C285.315 261.644 283.946 267.348 281.825 272.765C276.435 286.558 266.632 298.619 253.848 306.142C247.525 309.861 240.422 312.408 233.172 313.472C227.954 314.239 222.936 314.05 217.698 313.528C211.125 312.868 204.522 311.881 198.133 310.183L197.105 309.909C194.456 309.196 191.664 308.375 189.369 306.94C186.801 305.334 185.467 302.859 184.876 299.944C184.546 298.321 185.57 296.576 187.339 296.542L187.453 296.542C187.84 296.55 188.224 296.536 188.613 296.511L188.906 296.491H188.921C188.941 296.486 188.952 296.486 188.972 296.486C189.145 296.46 189.313 296.409 189.481 296.384C191.428 296.055 193.13 296.381 194.958 296.991L195.188 297.069C198.265 298.133 201.317 299.12 204.496 299.851C207.783 300.603 211.11 301.202 214.447 301.672L214.778 301.713L214.88 301.729L214.931 301.734V301.734C214.941 301.734 214.952 301.734 214.962 301.739L215.945 301.861V301.861C216.72 301.954 217.494 302.035 218.269 302.117C219.695 302.26 221.122 302.373 222.548 302.455C247.173 303.846 267.854 284.385 274.096 261.052C276.358 252.608 276.506 244.184 275.839 235.755C275.625 235.141 275.497 234.461 275.502 233.714C275.502 233.325 275.523 232.942 275.548 232.553C274.718 224.4 273.276 216.242 272.374 208.059C271.32 198.5 270.733 188.885 270.947 179.264C271.054 174.512 271.559 169.807 272.221 165.102L272.46 163.411V163.411C269.467 162.825 266.684 161.4 264.468 159.337C259.659 162.124 253.436 162.372 248.689 159.428C243.37 162.777 235.938 163.08 230.581 159.807C227.344 162.127 223.265 163.127 219.261 162.247C217.459 161.851 215.669 160.994 214.135 159.808C213.04 160.002 211.931 160.077 210.828 160.019L210.6 160.147V160.147C208.057 161.492 205.241 162.378 202.342 162.279C200.196 162.206 197.985 161.781 195.939 160.977C193.752 162.302 191.36 163.206 188.8 163.53C185.062 164.004 181.027 163.173 177.918 161.045C172.237 164.294 165.248 164.794 159.116 162.611C157.86 164.746 156.122 166.588 154.087 168.007C154.451 169.317 154.567 170.715 154.442 172.058C154.236 174.27 153.684 176.253 152.78 178.034C153.733 180.022 154.019 182.464 153.486 184.915C152.726 188.41 150.7 191.451 148.077 193.819C147.846 199.397 144.799 204.627 139.839 207.533C139.588 207.68 139.338 207.799 139.089 207.907C138.87 208.208 138.608 208.472 138.309 208.695C135.155 211.62 130.164 211.388 126.211 209.735C126.134 209.739 126.058 209.745 125.981 209.747C124.569 209.783 123.607 209.23 123.035 208.417C122.46 208.448 121.889 208.509 121.314 208.617C119.214 209.01 116.911 209.767 115.011 210.75C110.078 213.296 107.796 217.797 107.113 223.209C106.37 229.111 108.061 235.126 112.611 239.12C114.822 241.064 117.65 242.281 120.523 242.793C123.698 243.36 127.091 241.964 129.435 244.7C129.904 245.242 130.225 245.999 129.97 246.731C129.175 249.012 127.866 249.887 125.817 250.204C128.778 253.728 131.814 257.134 135.177 260.3C138.815 263.732 142.575 267.056 145.857 270.841C149.326 274.846 152.46 279.091 154.635 283.95C155.879 286.743 156.877 289.622 157.953 292.481L158.145 292.979C159.344 296.017 160.939 298.945 159.094 302.117C158.36 303.365 156.699 304.572 155.17 304.373C150.865 303.82 149.424 300.9 148.098 297.095C147.1 294.22 146.335 291.264 145.261 288.415C145.06 287.888 144.84 287.366 144.611 286.846C142.128 287.541 139.399 286.99 137.184 285.569C134.816 286.622 132.194 287.147 129.661 287.103C126.27 287.043 123.171 286.097 120.508 284.391C120.296 284.335 120.083 284.281 119.871 284.22C115.819 285.778 111.073 285.5 107.404 282.975C105.029 281.34 103.404 279.157 102.481 276.727C99.4112 276.668 96.3745 275.576 94.175 273.39C92.1552 271.383 90.9747 268.793 90.6241 266.103C87.9818 265.577 85.5046 264.295 83.5618 262.135C81.9395 260.331 80.9536 258.034 80.6204 255.648C77.4023 254.727 74.5001 252.617 72.915 249.676C71.4399 246.938 71.227 243.968 71.9484 241.267L71.7614 240.997V240.997C68.4465 239.255 65.9168 236.404 65.657 232.332C65.5836 231.173 65.7079 230.013 66.0213 228.915C65.9081 227.688 65.9805 226.461 66.301 225.275C61.8427 220.922 60.2276 213.931 62.6478 208.151C58.2914 203.446 57.1399 196.004 60.3346 190.419C58.1437 187.759 57.0176 184.368 57.2062 180.747C57.4405 176.226 59.5041 172.277 61.9752 168.62C60.141 166.584 59.1627 163.746 59.2345 161.004C59.3359 157.03 61.4402 153.609 64.0749 150.775C61.7765 143.778 64.3444 136.188 69.9848 131.759C68.8435 129.872 68.4206 127.534 68.793 125.166C69.4447 121.028 72.5374 118.21 75.8747 115.98C75.1767 113.7 75.3601 111.239 76.4709 108.881C77.9536 105.736 80.7508 103.741 83.6703 102.053C84.4244 95.0767 92.1894 89.1181 98.701 92.7188C97.0858 87.5275 101.738 81.9218 107.088 81.3285C109.706 73.3599 118.74 68.3374 126.862 70.3167C131.014 64.619 138.744 62.4254 145.306 64.8696C152.521 59.3203 161.473 58.4968 169.916 61.315ZM118.521 217.777C123.591 217.501 127.392 221.654 130.062 225.454C132.569 229.019 126.139 232.784 124.264 228.856C123.591 227.454 122.827 225.971 121.803 224.743C121.631 224.985 121.479 225.235 121.328 225.492L121.176 225.751C121.064 225.94 120.947 226.135 120.85 226.334C120.86 226.37 120.707 226.84 120.702 226.861C120.284 228.134 119.372 228.953 118.13 229.393C116.524 229.955 115.006 228.743 114.491 227.321C113.671 225.05 115.576 223.071 117.558 222.171C115.612 221.854 113.696 222.519 112.29 224.022C112.097 224.232 111.77 224.063 111.761 223.802C111.597 220.237 115.311 217.951 118.521 217.777Z" fill="black"/>
<path fill-rule="evenodd" clip-rule="evenodd" d="M208.652 253.374C211.555 252.816 215.166 254.033 218.061 254.566L218.277 254.604C221.787 255.216 225.29 255.955 228.839 256.315C232.227 256.66 235.688 256.722 239.076 256.334C240.704 256.147 242.317 255.83 243.898 255.404C244.574 255.221 245.245 255.018 245.908 254.792L245.983 254.763C246.469 254.563 247.786 253.808 247.771 254.229C248.141 253.803 248.651 253.501 249.211 253.354C250.001 253.147 251.015 253.341 251.676 253.898C252.536 253.219 253.826 253.706 254.403 254.519C255.392 255.914 255.07 257.548 254.942 259.166L254.932 259.309C254.823 260.834 254.657 262.348 254.452 263.862L254.362 264.51C254.043 266.749 253.955 270.441 251.234 271.175C249.082 271.756 247.113 269.548 245.725 267.797L244.966 266.826C244.067 265.689 243.25 264.518 242.592 263.225C242.292 262.636 242.003 262.033 241.752 261.422C241.72 261.345 241.697 261.276 241.673 261.207C237.682 261.742 233.596 261.666 229.595 261.14C227.062 260.807 224.566 260.325 222.108 259.679L220.999 261.678C219.701 264.008 218.385 266.332 217.001 268.609L216.894 268.783C215.598 270.837 213.43 272.895 210.866 271.356C208.571 269.979 208.474 266.846 208.232 264.508C208.07 262.946 207.94 261.374 207.877 259.804L207.854 259.131C207.813 257.609 207.564 255.844 208.151 254.42C208.237 254.213 208.536 254.053 208.716 254.271C209.942 255.758 210.313 258.062 210.843 259.887C211.433 261.917 212.288 264.134 212.594 266.24L212.68 266.091V266.091C212.982 265.519 213.29 264.95 213.599 264.382L214.528 262.678C215.361 261.14 216.209 259.611 217.065 258.086C216.088 257.72 215.12 257.326 214.155 256.927L211.967 256.015C210.718 255.488 209.443 254.894 208.504 253.937C208.337 253.767 208.395 253.423 208.652 253.374ZM250.163 258.995C248.007 259.869 245.777 260.499 243.506 260.918C243.653 261.067 243.799 261.217 243.935 261.374C244.469 261.991 245.036 262.583 245.606 263.168L245.948 263.519C246.822 264.412 248.134 265.883 249.472 266.738L249.545 266.352C249.557 266.286 249.566 266.228 249.571 266.183L249.713 264.914C249.736 264.702 249.759 264.491 249.78 264.279C249.895 263.134 249.987 261.987 250.083 260.841C250.133 260.237 250.145 259.616 250.163 258.995ZM224.649 185.235C229.784 183.049 235.878 184.081 240.301 187.384C244.826 190.764 246.805 196.258 247.067 201.741C250.646 198.694 255.801 201 258.815 203.855C262.294 207.149 264.053 212.121 263.242 216.84C262.434 221.542 259.021 225.691 254.403 227.089C252.193 227.758 249.731 227.773 247.508 227.151C246.753 226.939 245.828 226.611 244.974 226.154C245.022 226.35 245.072 226.546 245.119 226.741C246.228 231.421 246.856 236.681 245.192 241.309C242.517 248.745 233.018 252.909 227.086 246.308C224.757 243.716 222.947 239.658 223.088 236.125C223.162 234.268 224.217 232.12 226.395 232.246C228.084 232.343 228.885 233.752 228.453 235.243L228.426 235.329C227.511 238.18 229.074 242.299 231.339 244.244C234.812 247.225 239.578 244.631 241.477 241.134C243.69 237.06 243.421 231.835 242.713 227.402C242.018 223.049 240.469 219.067 238.825 215.04C238.65 215.071 238.473 215.1 238.292 215.125C235.022 215.567 228.367 215.734 224.754 213.372C225.142 217.017 224.38 220.77 222.303 223.857C219.988 227.297 216.501 229.118 212.442 229.676C208.499 230.218 203.93 230.328 200.038 229.397C191.749 227.414 188.827 217.213 191.334 209.849C192.816 205.493 196.954 201.576 201.553 200.586C203.922 199.033 207.103 198.573 209.838 198.784C213.922 199.102 217.944 200.861 220.679 203.95C221.724 205.13 222.583 206.467 223.245 207.897C223.468 207.722 223.727 207.591 224.02 207.522C224.478 207.415 224.878 207.391 225.325 207.548C225.548 207.627 225.87 207.905 226.063 208.085L226.505 208.602C227.046 209.231 227.561 209.759 228.525 210.15C231.212 211.24 234.856 211.477 237.711 211.254C244.995 210.686 244.078 201.067 242.283 196.126C240.158 190.272 234.067 186.63 227.87 187.67C225.207 188.116 222.667 189.529 220.718 191.375C218.542 193.436 217.611 195.926 216.306 198.535C216.228 198.69 215.962 198.656 215.929 198.486C214.856 192.984 219.942 187.24 224.649 185.235ZM185.853 229.588C185.632 229.329 185.922 228.874 186.239 229.088C188.561 230.661 191.143 231.796 193.949 232.102C195.268 232.246 196.596 232.256 197.91 232.054C199.028 231.882 200.036 231.542 201.153 231.849C201.747 232.013 201.855 232.7 201.492 233.131C199.805 235.133 195.652 234.598 193.388 234.062C190.46 233.368 187.805 231.874 185.853 229.588ZM263.98 225.933C265.12 225.229 266.477 226.623 265.803 227.75C264.072 230.64 259.056 230.875 256.146 230.183C255.918 230.13 255.97 229.773 256.201 229.78C257.873 229.821 259.385 229.5 260.826 228.631C262.057 227.887 262.791 226.667 263.98 225.933ZM208.365 202.832L208.137 202.834C205.476 202.877 203.04 203.888 200.476 204.423C200.263 204.467 200.05 204.445 199.857 204.374C196.735 206.451 194.582 209.716 194.29 214.013C194.088 216.989 194.817 220.232 196.589 222.674C198.607 225.454 201.857 225.883 205.058 225.966L205.383 225.973C211.433 226.091 218.09 225.734 220.246 218.991C221.843 214 220.138 207.941 215.692 204.951C213.533 203.499 210.954 202.829 208.365 202.832ZM257.111 206.411L256.934 206.205C254.561 203.49 250.798 201.018 247.088 202.385L247.099 202.842C247.1 202.918 247.101 202.995 247.101 203.071C247.09 208.313 245.052 213.205 240.044 214.743C241.388 216.654 242.467 218.774 243.332 220.974C243.637 220.776 244.008 220.649 244.438 220.606C246.201 220.428 247.211 222.079 248.74 222.694C250.171 223.271 251.795 223.42 253.306 223.122C256.611 222.47 258.929 219.629 259.742 216.476C260.66 212.912 259.447 209.176 257.111 206.411ZM206.801 210.823C207.903 208.967 210.622 209.236 211.712 210.872L211.764 210.953L211.776 210.938C213.591 213.283 212.714 216.988 210.078 218.306C207.963 219.363 205.274 219.086 203.869 217.028C203.554 216.567 203.352 216.025 203.278 215.475C203.227 215.101 203.256 214.728 203.34 214.356L203.319 214.443C203.361 214.256 203.427 213.962 203.444 213.892C203.629 213.135 204.075 212.324 204.632 211.776C205.207 211.212 206.004 210.869 206.801 210.823ZM252.092 208.895C253.068 208.895 253.935 209.302 254.64 209.947C255.643 210.865 255.782 212.186 255.566 213.441C255.499 213.823 255.408 214.193 255.312 214.57L255.23 214.91C255.216 214.967 255.2 215.023 255.183 215.078C255.123 215.312 255.027 215.526 254.913 215.731C254.496 217.28 252.806 218.05 251.316 217.712C250.615 217.552 249.916 216.972 249.559 216.364C249.441 216.164 249.358 215.965 249.3 215.764L249.01 215.078V215.078C248.955 214.914 248.921 214.738 248.878 214.57C248.781 214.193 248.687 213.823 248.619 213.441C248.389 212.145 248.572 210.917 249.545 209.947C250.199 209.295 251.169 208.895 252.092 208.895ZM230.592 195.456C232.286 195.229 234.012 196.016 234.888 197.508C235.649 198.804 235.646 200.549 234.888 201.846L234.824 201.955V201.955C233.427 204.344 230.171 204.65 228.212 202.805L228.117 202.716V202.716C226.857 201.529 226.573 199.562 227.226 198.021C227.822 196.612 229.072 195.659 230.592 195.456Z" fill="black"/>
</svg>
