<svg width="44" height="44" viewBox="0 0 44 44" fill="none" xmlns="http://www.w3.org/2000/svg">
<rect width="44" height="44" rx="22" fill="#FF67ED" fill-opacity="0.26"/>
<path d="M27.731 10.1479H16.8495C13.1543 10.1479 10.1479 13.1544 10.1479 16.8497V27.7312C10.1479 31.4266 13.1543 34.433 16.8495 34.433H27.731C31.4266 34.433 34.433 31.4264 34.433 27.7312V16.8497C34.4331 13.1544 31.4266 10.1479 27.731 10.1479ZM32.2784 27.7312C32.2784 30.2385 30.2385 32.2783 27.7312 32.2783H16.8495C14.3423 32.2784 12.3026 30.2385 12.3026 27.7312V16.8497C12.3026 14.3425 14.3423 12.3026 16.8495 12.3026H27.731C30.2384 12.3026 32.2783 14.3425 32.2783 16.8497V27.7312H32.2784Z" fill="#FF67ED"/>
<path d="M22.2904 16.0331C18.8399 16.0331 16.0328 18.8402 16.0328 22.2907C16.0328 25.7411 18.8399 28.5481 22.2904 28.5481C25.7409 28.5481 28.5481 25.7411 28.5481 22.2907C28.5481 18.8402 25.7409 16.0331 22.2904 16.0331ZM22.2904 26.3933C20.0281 26.3933 18.1875 24.5529 18.1875 22.2906C18.1875 20.0282 20.028 18.1876 22.2904 18.1876C24.5528 18.1876 26.3934 20.0282 26.3934 22.2906C26.3934 24.5529 24.5527 26.3933 22.2904 26.3933Z" fill="#FF67ED"/>
<path d="M28.8105 14.206C28.3954 14.206 27.9876 14.3741 27.6944 14.6685C27.3998 14.9616 27.2304 15.3695 27.2304 15.7861C27.2304 16.2014 27.3999 16.6092 27.6944 16.9037C27.9874 17.1967 28.3954 17.3662 28.8105 17.3662C29.2271 17.3662 29.6336 17.1967 29.9281 16.9037C30.2225 16.6092 30.3906 16.2012 30.3906 15.7861C30.3906 15.3695 30.2225 14.9616 29.9281 14.6685C29.635 14.3741 29.2271 14.206 28.8105 14.206Z" fill="#FF67ED"/>
</svg>
