<svg width="25" height="25" viewBox="0 0 25 25" fill="none" xmlns="http://www.w3.org/2000/svg">
<path d="M24.3916 14.2385C24.1359 14.1746 23.8802 14.2385 23.6564 14.3983C22.8252 15.1016 21.8662 15.6771 20.8112 16.0607C19.8202 16.4443 18.7333 16.6361 17.5824 16.6361C14.993 16.6361 12.6274 15.5811 10.9331 13.8868C9.23878 12.1925 8.18383 9.82689 8.18383 7.23748C8.18383 6.15056 8.37564 5.09561 8.69532 4.13657C9.04697 3.11359 9.55846 2.18652 10.2298 1.38732C10.5175 1.03567 10.4536 0.524178 10.1019 0.236465C9.87814 0.0766246 9.62239 0.0126884 9.36665 0.0766246C6.64936 0.811891 4.28372 2.44226 2.58941 4.61609C0.959043 6.75795 0 9.41131 0 12.2884C0 15.773 1.4066 18.9378 3.7083 21.2395C6.01 23.5412 9.14287 24.9478 12.6594 24.9478C15.6004 24.9478 18.3177 23.9248 20.4915 22.2305C22.6973 20.5042 24.2957 18.0427 24.9671 15.2295C25.0949 14.7819 24.8392 14.3344 24.3916 14.2385Z" fill="white"/>
</svg>
