<svg width="25" height="25" viewBox="0 0 25 25" fill="none" xmlns="http://www.w3.org/2000/svg">
<path d="M19.4444 12.5C19.4444 16.3361 16.3361 19.4444 12.5 19.4444C8.66389 19.4444 5.55556 16.3361 5.55556 12.5C5.55556 8.66389 8.66389 5.55556 12.5 5.55556C16.3361 5.55556 19.4444 8.66389 19.4444 12.5ZM12.5 2.77778C12.9722 2.77778 13.4333 2.82361 13.8889 2.88889V0H11.1111V2.88889C11.5667 2.82361 12.0278 2.77778 12.5 2.77778ZM6.68889 4.72361L4.64444 2.67778L2.67917 4.64306L4.725 6.68889C5.28333 5.94306 5.94444 5.28194 6.68889 4.72361V4.72361ZM20.275 6.6875L22.3208 4.64167L20.3569 2.67778L18.3111 4.72361C19.0569 5.28194 19.7167 5.94306 20.275 6.6875ZM12.5 22.2222C12.0278 22.2222 11.5667 22.1764 11.1111 22.1111V25H13.8889V22.1111C13.4333 22.1764 12.9722 22.2222 12.5 22.2222ZM18.3125 20.275L20.3583 22.3208L22.3236 20.3556L20.2778 18.3111C19.7181 19.0556 19.0569 19.7167 18.3125 20.275ZM2.77778 12.5C2.77778 12.0278 2.82361 11.5667 2.88889 11.1111H0V13.8889H2.88889C2.82361 13.4333 2.77778 12.9722 2.77778 12.5ZM22.1111 11.1111C22.1764 11.5667 22.2222 12.0278 22.2222 12.5C22.2222 12.9722 22.1764 13.4333 22.1111 13.8889H25V11.1111H22.1111V11.1111ZM4.72361 18.3111L2.67778 20.3569L4.64167 22.3208L6.6875 20.275C5.94306 19.7167 5.28194 19.0569 4.72361 18.3111Z" fill="black"/>
</svg>
