<svg width="44" height="44" viewBox="0 0 44 44" fill="none" xmlns="http://www.w3.org/2000/svg">
<rect width="44" height="44" rx="22" fill="white"/>
<path d="M34.9277 14.0591C33.9846 14.4728 32.9797 14.7471 31.9319 14.8802C33.0098 14.2367 33.8324 13.2254 34.2192 12.0065C33.2142 12.6057 32.1047 13.0289 30.9223 13.265C29.9681 12.249 28.6081 11.6198 27.1245 11.6198C24.246 11.6198 21.9287 13.9561 21.9287 16.8203C21.9287 17.2324 21.9636 17.6287 22.0492 18.0059C17.7267 17.7951 13.902 15.7234 11.3326 12.5676C10.8841 13.3459 10.621 14.2367 10.621 15.1956C10.621 16.9962 11.5482 18.5924 12.9304 19.5165C12.0951 19.5006 11.2756 19.2581 10.5813 18.8761C10.5813 18.892 10.5813 18.9126 10.5813 18.9332C10.5813 21.4597 12.3835 23.5583 14.7468 24.0418C14.3236 24.1575 13.8624 24.213 13.3837 24.213C13.0508 24.213 12.7148 24.1939 12.3994 24.1242C13.073 26.1832 14.9846 27.6969 17.2576 27.746C15.4886 29.1298 13.2426 29.9635 10.8112 29.9635C10.3848 29.9635 9.97584 29.9445 9.5669 29.8922C11.87 31.3774 14.5994 32.2254 17.5429 32.2254C27.1102 32.2254 32.3409 24.3001 32.3409 17.4305C32.3409 17.2007 32.333 16.9788 32.3219 16.7585C33.3537 16.0262 34.2207 15.1116 34.9277 14.0591Z" fill="black"/>
</svg>
