<?xml version="1.0" standalone="no"?>
<!DOCTYPE svg PUBLIC "-//W3C//DTD SVG 20010904//EN"
 "http://www.w3.org/TR/2001/REC-SVG-20010904/DTD/svg10.dtd">
<svg version="1.0" xmlns="http://www.w3.org/2000/svg"
 width="177.000000pt" height="177.000000pt" viewBox="0 0 177.000000 177.000000"
 preserveAspectRatio="xMidYMid meet">
<metadata>
Created by potrace 1.11, written by Peter Selinger 2001-2013
</metadata>
<g transform="translate(0.000000,177.000000) scale(0.100000,-0.100000)"
fill="#000000" stroke="none">
<path d="M241 1516 c-16 -64 -14 -109 7 -164 16 -41 17 -58 9 -110 -9 -51 -8
-70 8 -119 13 -40 18 -83 16 -139 -2 -61 3 -94 19 -136 26 -70 96 -139 169
-164 28 -11 51 -25 51 -33 0 -64 71 -166 139 -200 34 -18 815 -231 844 -231
11 0 16 59 27 310 12 286 11 314 -4 354 -19 49 -90 122 -129 131 -22 6 -25 13
-29 77 -4 56 -11 78 -35 111 -56 81 -71 87 -578 222 -259 69 -477 128 -486
131 -13 3 -19 -6 -28 -40z m527 -190 c251 -67 434 -121 450 -133 15 -10 35
-36 45 -56 18 -35 18 -51 7 -300 -7 -144 -14 -264 -16 -266 -8 -9 -770 201
-801 220 -33 21 -88 116 -81 142 2 12 50 2 236 -48 l232 -62 11 40 c6 22 7 43
2 47 -4 5 -96 31 -203 60 -109 28 -209 61 -227 73 -36 24 -67 75 -78 125 -7
32 -6 34 16 26 13 -4 120 -33 237 -64 230 -62 223 -62 226 2 l1 32 -192 52
c-105 28 -206 60 -225 71 -49 28 -112 153 -77 153 8 0 204 -51 437 -114z m639
-428 c44 -49 44 -55 33 -306 -6 -130 -12 -242 -13 -248 -3 -14 -711 174 -748
199 -26 17 -67 82 -58 91 2 3 162 -38 354 -89 193 -52 355 -95 361 -95 8 0 13
65 18 208 9 274 11 285 53 240z"/>
</g>
</svg>
